<?xml version="1.0" standalone="no"?>
<!DOCTYPE svg PUBLIC "-//W3C//DTD SVG 20010904//EN"
 "http://www.w3.org/TR/2001/REC-SVG-20010904/DTD/svg10.dtd">
<svg version="1.0" xmlns="http://www.w3.org/2000/svg"
 width="4667.000000pt" height="4667.000000pt" viewBox="0 0 4667.000000 4667.000000"
 preserveAspectRatio="xMidYMid meet">
<metadata>
Created by potrace 1.11, written by Peter Selinger 2001-2013
</metadata>
<g transform="translate(0.000000,4667.000000) scale(0.100000,-0.100000)"
fill="#000000" stroke="none">
<path d="M22475 46659 c-3797 -136 -7496 -1197 -10786 -3094 -3572 -2061
-6546 -5040 -8604 -8620 -266 -464 -443 -796 -704 -1325 -1373 -2786 -2165
-5800 -2345 -8930 -49 -849 -49 -1861 0 -2710 156 -2711 772 -5339 1832 -7815
326 -763 723 -1566 1137 -2300 1653 -2932 3983 -5528 6735 -7501 3537 -2537
7663 -4019 12005 -4314 895 -60 1987 -68 2850 -20 3227 180 6264 979 9115
2396 3038 1510 5713 3665 7841 6319 1940 2419 3383 5206 4228 8170 478 1678
767 3409 861 5155 41 775 41 1755 0 2530 -204 3807 -1324 7467 -3285 10735
-2287 3812 -5620 6897 -9600 8888 -2991 1496 -6231 2318 -9605 2437 -323 11
-1346 11 -1675 -1z m1300 -1759 c1600 -52 3107 -261 4615 -640 3168 -797 6086
-2286 8605 -4391 521 -436 907 -790 1420 -1304 404 -403 640 -654 974 -1035
2151 -2450 3714 -5336 4586 -8465 680 -2441 924 -5005 719 -7580 -217 -2737
-972 -5450 -2201 -7908 -1787 -3575 -4557 -6617 -7948 -8728 -2666 -1660
-5638 -2714 -8740 -3098 -552 -69 -954 -104 -1595 -141 -91 -5 -378 -15 -638
-21 -610 -16 -1388 2 -1992 46 -1791 130 -3462 452 -5140 992 -2808 903 -5449
2410 -7675 4379 -659 582 -1331 1254 -1896 1894 -3229 3660 -5113 8224 -5394
13070 -48 833 -48 1742 0 2555 199 3347 1142 6532 2793 9435 1100 1934 2530
3727 4185 5247 2109 1938 4585 3441 7267 4413 2134 773 4389 1206 6662 1279
347 11 1064 12 1393 1z"/>
<path d="M22370 44464 c-36 -2 -182 -8 -325 -14 -232 -10 -561 -30 -730 -45
-33 -3 -139 -12 -235 -21 -1074 -94 -2254 -298 -3340 -575 -2342 -599 -4589
-1608 -6600 -2964 -953 -642 -1799 -1316 -2670 -2124 -223 -207 -855 -842
-1066 -1071 -1047 -1137 -1898 -2269 -2669 -3555 -1768 -2947 -2786 -6246
-2990 -9690 -46 -782 -48 -1688 -5 -2460 216 -3874 1463 -7570 3637 -10776
1338 -1972 3000 -3711 4916 -5142 2081 -1554 4436 -2719 6917 -3421 1680 -475
3314 -730 5109 -797 354 -13 1435 -7 1746 10 1065 59 1926 159 2887 335 2191
404 4363 1176 6318 2248 2544 1394 4770 3280 6561 5558 2176 2767 3628 6018
4234 9480 166 946 265 1890 305 2900 13 326 13 1260 0 1585 -119 3045 -838
5909 -2156 8594 -601 1224 -1260 2300 -2079 3396 -621 831 -1213 1512 -1985
2286 -544 546 -918 889 -1445 1329 -2339 1951 -5090 3390 -7997 4184 -1525
417 -2960 645 -4628 737 -182 10 -1566 20 -1710 13z m1310 -1564 c469 -16 774
-35 1225 -76 3006 -274 5912 -1232 8500 -2802 2850 -1730 5241 -4161 6920
-7037 1576 -2699 2487 -5700 2680 -8825 46 -755 48 -1657 5 -2415 -131 -2290
-661 -4556 -1557 -6660 -219 -513 -569 -1238 -818 -1695 -945 -1728 -2073
-3239 -3450 -4615 -1738 -1739 -3758 -3131 -5995 -4130 -1900 -849 -3934
-1396 -6005 -1615 -283 -30 -277 -29 -465 -45 -618 -51 -874 -60 -1690 -60
-769 1 -1006 8 -1535 50 -2608 206 -5067 887 -7375 2042 -1548 774 -2947 1713
-4241 2845 -298 262 -954 878 -1070 1006 -23 26 -105 112 -183 192 -871 896
-1754 2020 -2459 3127 -1795 2818 -2847 6025 -3072 9363 -29 431 -36 618 -42
1135 -16 1443 106 2767 387 4175 684 3430 2273 6633 4599 9270 529 599 1212
1283 1796 1795 2925 2569 6485 4220 10297 4775 1161 169 2400 239 3548 200z"/>
<path d="M27750 38150 c-58 -4 -153 -8 -212 -9 -59 0 -138 -5 -175 -11 -38 -5
-129 -14 -203 -20 -208 -15 -415 -43 -635 -85 -44 -9 -96 -18 -115 -22 -19 -3
-39 -9 -45 -13 -5 -4 -30 -10 -55 -14 -25 -4 -58 -11 -75 -16 -16 -6 -77 -24
-135 -41 -106 -31 -178 -54 -215 -69 -31 -14 -238 -88 -307 -111 -35 -11 -72
-24 -83 -29 -19 -8 -60 -21 -160 -49 -163 -46 -326 -63 -635 -68 -268 -5 -365
-1 -675 28 -55 5 -176 16 -270 25 -93 8 -190 17 -215 19 -25 3 -124 12 -220
20 -96 9 -209 20 -250 25 -41 5 -113 12 -160 15 -47 3 -125 10 -175 15 -166
18 -300 30 -495 46 -107 8 -235 19 -285 24 -49 4 -160 13 -245 19 -85 7 -184
16 -220 21 -36 5 -132 14 -215 20 -224 17 -355 28 -500 39 -71 6 -231 18 -355
26 -124 8 -279 20 -345 26 -66 5 -203 15 -305 20 -189 10 -369 20 -680 38
-311 18 -977 24 -1200 11 -188 -11 -332 -27 -370 -42 -8 -4 -37 -9 -65 -13
-27 -3 -63 -10 -80 -16 -16 -5 -64 -18 -105 -29 -234 -65 -509 -204 -710 -359
-198 -153 -385 -376 -490 -587 -33 -66 -60 -127 -60 -135 0 -8 -4 -19 -9 -24
-20 -23 -41 -137 -41 -226 0 -92 24 -294 40 -334 5 -11 11 -36 14 -55 5 -32
13 -69 50 -230 21 -89 67 -263 76 -285 4 -11 16 -49 25 -85 9 -36 21 -74 25
-85 5 -11 11 -33 15 -50 5 -26 51 -181 75 -255 4 -14 20 -65 35 -115 15 -49
33 -108 40 -130 7 -22 23 -74 35 -115 12 -41 30 -100 40 -130 18 -52 31 -98
50 -165 4 -16 19 -68 33 -115 13 -47 27 -96 31 -110 4 -14 13 -50 22 -80 50
-177 62 -229 76 -337 10 -76 10 -85 -12 -135 -35 -81 -92 -264 -136 -436 -29
-110 -45 -171 -69 -257 -9 -33 -35 -130 -57 -215 -22 -85 -46 -180 -54 -210
-9 -30 -19 -71 -24 -90 -5 -19 -16 -60 -24 -90 -8 -30 -29 -109 -46 -175 -68
-259 -80 -305 -119 -450 -51 -185 -60 -219 -77 -273 -8 -23 -14 -49 -14 -57 0
-9 -4 -23 -9 -33 -5 -9 -24 -69 -41 -132 -18 -63 -45 -157 -61 -209 -16 -52
-29 -100 -29 -108 0 -7 -4 -21 -10 -31 -5 -9 -30 -84 -55 -167 -48 -155 -71
-226 -85 -260 -5 -11 -15 -40 -24 -65 -17 -53 -104 -296 -116 -325 -43 -107
-85 -201 -138 -305 -37 -71 -63 -142 -83 -220 -44 -174 -69 -263 -79 -285 -5
-11 -18 -47 -29 -80 -93 -279 -252 -558 -392 -691 -47 -45 -139 -112 -179
-132 -92 -45 -89 -45 -815 -52 -683 -7 -1085 -20 -1240 -39 -44 -6 -125 -15
-180 -22 -96 -10 -135 -16 -289 -38 -62 -10 -155 -29 -316 -66 -61 -14 -184
-51 -215 -65 -11 -5 -47 -18 -80 -28 -166 -56 -365 -163 -510 -274 -239 -185
-346 -278 -535 -468 -289 -288 -537 -600 -705 -885 -16 -27 -37 -63 -47 -80
-34 -57 -145 -290 -163 -340 -9 -27 -21 -59 -25 -70 -9 -21 -30 -86 -48 -145
-60 -199 -60 -501 -1 -640 61 -143 144 -257 298 -410 185 -183 493 -425 811
-636 74 -49 137 -91 140 -94 3 -3 37 -25 75 -50 39 -24 99 -63 135 -86 36 -23
135 -84 220 -136 220 -134 261 -159 299 -180 18 -10 81 -47 140 -82 258 -152
300 -176 310 -176 6 0 11 -4 11 -10 0 -5 5 -10 10 -10 6 0 28 -11 49 -24 21
-13 78 -47 127 -74 151 -84 169 -94 179 -102 6 -4 42 -24 80 -45 107 -59 144
-79 225 -125 41 -23 98 -55 125 -70 28 -15 82 -45 120 -67 39 -22 104 -58 145
-80 66 -35 269 -148 385 -213 22 -12 126 -70 230 -128 105 -58 204 -113 220
-122 49 -27 345 -195 415 -235 75 -42 279 -141 362 -175 31 -13 55 -27 52 -31
-3 -5 -55 -43 -117 -86 -62 -42 -114 -79 -117 -83 -3 -3 -48 -34 -100 -70 -52
-35 -99 -68 -105 -72 -14 -11 -157 -112 -230 -163 -33 -22 -98 -67 -145 -100
-47 -32 -87 -61 -90 -64 -3 -3 -36 -27 -75 -53 -86 -58 -189 -129 -194 -134
-2 -2 2 -17 9 -34 11 -26 18 -30 49 -30 20 0 54 5 76 10 57 15 229 45 450 81
76 12 279 36 415 49 58 5 228 13 378 16 l272 7 2 -24 c2 -44 -1 -54 -45 -149
-25 -52 -57 -124 -72 -160 -14 -36 -37 -89 -51 -118 -13 -29 -24 -56 -24 -60
0 -5 -11 -30 -24 -58 -13 -27 -45 -107 -71 -179 -26 -71 -56 -149 -66 -173
-11 -24 -42 -114 -71 -200 -28 -86 -54 -166 -58 -177 -13 -35 -33 -99 -41
-130 -4 -16 -17 -63 -29 -104 -21 -73 -64 -233 -80 -301 -5 -19 -16 -60 -24
-90 -33 -127 -54 -210 -69 -285 -9 -44 -24 -112 -32 -152 -8 -40 -15 -86 -15
-103 0 -17 -4 -39 -9 -48 -19 -35 -32 -384 -21 -533 10 -133 9 -144 -7 -153
-28 -16 -141 -52 -223 -70 -41 -10 -91 -21 -110 -26 -19 -4 -69 -16 -110 -26
-41 -9 -82 -21 -90 -25 -8 -4 -55 -24 -105 -45 -80 -33 -117 -49 -230 -99 -16
-7 -73 -30 -125 -50 -52 -20 -114 -46 -137 -56 -23 -10 -44 -19 -48 -19 -3 0
-24 -9 -48 -19 -23 -11 -82 -36 -132 -57 -49 -20 -126 -53 -170 -74 -44 -20
-109 -50 -145 -66 -207 -92 -438 -222 -535 -301 -89 -72 -125 -124 -125 -180
0 -40 5 -51 38 -82 72 -68 226 -99 536 -106 333 -9 641 -35 741 -64 17 -5 48
-12 70 -16 22 -3 54 -10 70 -15 17 -5 53 -16 80 -24 126 -36 263 -79 292 -92
17 -8 33 -14 36 -14 28 0 498 -219 638 -298 19 -10 61 -34 94 -52 33 -18 92
-52 130 -75 39 -23 115 -68 170 -100 55 -32 102 -61 105 -64 3 -3 14 -11 25
-18 201 -119 1159 -776 1301 -892 20 -16 319 -228 414 -293 140 -96 366 -240
435 -278 49 -27 80 -46 123 -76 2 -1 -21 -26 -50 -55 -54 -55 -205 -262 -359
-494 -77 -115 -171 -266 -399 -640 -37 -60 -111 -182 -165 -270 -269 -442
-305 -504 -386 -675 -27 -58 -54 -114 -59 -125 -5 -11 -22 -49 -38 -85 -16
-36 -61 -153 -101 -260 -40 -107 -77 -204 -82 -215 -5 -11 -20 -49 -33 -85
-52 -143 -71 -188 -131 -309 -110 -221 -257 -420 -410 -556 -38 -33 -77 -68
-89 -79 -12 -10 -55 -44 -96 -75 -41 -31 -77 -58 -80 -61 -7 -8 -172 -114
-370 -238 -284 -178 -322 -204 -376 -257 -100 -99 -80 -165 95 -311 124 -104
333 -318 476 -489 216 -257 424 -453 617 -583 66 -44 102 -65 233 -137 22 -12
78 -37 125 -55 47 -18 94 -36 105 -41 11 -4 49 -15 85 -24 36 -9 79 -20 96
-25 65 -21 285 -31 421 -20 73 6 143 14 155 19 13 5 57 17 98 26 41 10 79 22
85 26 5 5 16 9 25 9 28 0 239 97 332 153 51 31 118 78 148 106 30 28 58 51 62
51 5 0 8 -42 8 -92 0 -157 41 -458 89 -663 6 -22 15 -62 21 -90 6 -27 15 -59
19 -70 5 -11 19 -58 31 -105 50 -185 110 -269 259 -364 148 -95 453 -204 711
-253 41 -8 98 -19 125 -24 239 -48 548 -91 895 -123 91 -9 212 -21 270 -26 58
-6 179 -15 270 -21 91 -6 221 -14 290 -19 69 -4 224 -13 345 -19 121 -6 297
-16 390 -22 178 -10 493 -22 1080 -39 193 -5 447 -15 565 -21 118 -5 379 -14
580 -20 201 -5 507 -14 680 -21 559 -20 1317 -14 1500 12 36 5 130 14 210 19
192 14 472 48 580 71 25 5 81 17 125 25 44 9 96 20 115 25 19 5 85 21 145 36
61 14 137 35 170 45 130 41 161 51 180 59 11 5 65 25 120 45 288 104 604 293
883 528 51 43 97 75 102 72 5 -3 13 2 18 10 4 9 18 17 30 18 12 1 22 8 22 15
0 9 7 12 20 9 11 -3 18 -2 15 2 -7 12 75 91 94 91 4 0 28 20 52 45 85 85 107
105 118 105 5 0 15 8 22 18 13 16 13 16 -6 2 -14 -10 -13 -7 5 13 13 15 30 25
37 23 7 -3 12 -2 12 2 -3 19 2 33 10 28 4 -3 17 4 27 17 19 21 19 21 -1 7 -15
-12 -14 -8 5 17 14 18 32 32 41 32 9 1 21 12 27 26 6 14 17 24 24 23 7 -2 13
3 14 10 1 6 2 17 3 22 0 6 8 10 17 10 8 0 13 3 11 8 -5 7 58 74 68 72 11 -2
51 35 58 53 3 9 13 17 22 17 8 0 15 7 15 15 0 8 7 15 17 15 9 0 13 3 10 7 -9
8 32 53 49 53 7 0 25 16 40 35 14 19 31 32 37 28 5 -3 7 -1 3 5 -3 6 8 21 25
33 17 12 45 35 61 51 16 15 33 28 39 28 6 0 7 5 4 10 -3 6 1 13 9 16 9 3 16
12 16 19 0 17 35 47 45 38 4 -5 5 -3 2 4 -4 6 1 19 10 29 9 9 18 23 19 31 2
12 28 47 54 73 3 3 52 77 110 165 78 119 147 208 273 350 92 104 194 228 225
275 31 47 84 119 118 160 51 62 234 325 234 336 0 2 14 27 31 56 18 29 47 89
67 133 32 74 34 88 35 185 1 87 -2 111 -19 141 -55 99 -146 168 -279 209 -22
7 -92 43 -155 80 -63 37 -158 91 -210 120 -52 29 -144 87 -205 128 -60 42
-164 112 -230 156 -142 96 -320 221 -413 291 -50 38 -95 88 -180 200 -136 180
-253 322 -386 468 l-98 109 -34 108 c-19 59 -41 121 -49 136 -8 16 -15 33 -15
37 0 10 -148 368 -190 460 -70 153 -404 684 -569 902 -95 126 -298 375 -390
480 -67 75 -70 81 -53 96 147 136 569 502 701 609 51 41 98 80 104 85 95 82
391 301 595 439 149 102 457 296 468 296 2 0 45 23 95 51 50 27 146 78 213
113 146 75 186 101 249 156 59 52 94 105 114 173 36 123 -44 273 -219 409 -96
75 -197 137 -329 204 -113 57 -105 52 -91 66 7 7 12 16 12 21 0 10 -70 41
-265 119 -82 32 -159 63 -170 67 -40 17 -103 41 -215 81 -169 61 -284 103
-289 106 -2 2 39 81 92 176 156 284 277 552 277 613 0 13 4 26 9 29 4 3 14 46
22 96 11 75 16 90 28 84 9 -3 41 -15 71 -26 30 -10 64 -23 75 -28 11 -4 67
-25 125 -45 174 -62 243 -87 275 -100 63 -27 548 -191 695 -235 58 -17 114
-35 125 -40 11 -4 47 -16 80 -25 33 -9 71 -21 85 -26 14 -5 90 -25 170 -44
150 -37 193 -48 258 -65 20 -6 57 -14 82 -19 25 -5 92 -18 150 -30 183 -36
373 -63 580 -84 133 -13 630 -16 740 -4 223 23 419 61 648 123 31 8 68 18 82
21 14 3 30 9 35 13 6 4 28 11 50 14 22 4 63 14 90 22 28 9 66 19 85 24 34 9
84 22 207 56 32 9 67 20 78 24 11 5 40 13 65 18 25 6 72 18 105 27 33 9 84 23
113 31 28 7 78 21 110 29 31 9 82 20 112 24 30 5 82 17 115 26 33 9 72 19 87
22 33 6 82 49 73 63 -3 6 6 15 22 20 15 6 37 14 48 19 11 5 43 16 70 26 28 9
59 20 70 25 11 5 54 20 95 34 41 14 127 43 190 66 63 23 149 52 190 66 91 31
201 70 255 91 22 8 49 19 60 23 306 118 539 233 792 392 37 23 70 45 73 48 3
3 25 18 50 34 44 29 189 137 222 166 9 8 41 35 72 60 90 74 346 338 430 444
161 202 337 494 415 686 12 30 26 64 30 75 5 11 16 43 26 70 9 28 21 59 26 70
5 11 23 76 40 145 27 106 32 145 33 255 1 121 -1 137 -32 235 -19 58 -37 114
-42 125 -5 11 -16 43 -25 70 -18 51 -20 57 -53 136 -49 115 -143 230 -250 305
-61 43 -239 134 -261 134 -6 0 -19 4 -29 9 -9 5 -37 17 -62 26 -25 10 -54 21
-65 26 -11 4 -72 24 -135 44 -63 21 -124 41 -135 45 -11 5 -45 16 -75 25 -30
9 -64 20 -75 25 -11 5 -74 25 -140 45 -66 21 -129 41 -140 46 -11 4 -45 16
-75 25 -30 8 -64 20 -75 24 -11 5 -108 38 -215 74 -107 35 -267 90 -355 121
-88 32 -176 61 -195 67 -19 5 -44 13 -55 17 -11 5 -36 16 -55 24 -19 8 -102
36 -185 62 -82 26 -159 51 -170 55 -23 9 -148 47 -290 89 -96 28 -209 58 -325
86 -30 8 -118 29 -195 48 -224 55 -281 67 -312 67 -16 0 -33 3 -37 7 -8 8 -71
21 -346 68 -154 26 -288 45 -400 56 -58 6 -127 14 -155 19 -209 38 -925 68
-1106 47 l-67 -7 -30 77 c-17 43 -43 116 -58 163 -14 47 -30 94 -34 105 -5 11
-13 38 -18 60 -5 22 -24 94 -42 160 -17 66 -38 147 -46 180 -8 33 -19 76 -24
95 -5 19 -16 64 -24 100 -8 36 -17 74 -20 85 -7 25 -51 224 -83 375 -48 230
-82 450 -133 865 -32 265 -59 734 -67 1155 -6 363 14 966 37 1130 5 36 14 124
20 195 22 265 60 555 104 780 8 44 19 98 25 120 5 22 16 72 25 110 43 195 162
574 222 712 8 17 14 34 14 37 0 3 9 25 19 49 11 23 43 96 72 162 65 146 161
336 260 511 57 101 259 427 286 459 4 6 31 43 58 83 28 41 57 84 65 96 79 116
343 463 434 571 85 101 296 335 387 430 47 50 100 106 118 125 18 19 71 76
119 125 334 345 654 712 810 930 129 180 196 283 271 415 41 71 146 287 156
320 4 14 11 30 15 35 9 13 65 176 79 230 5 22 15 58 21 80 48 166 73 432 59
625 -5 80 -12 156 -16 170 -3 14 -12 57 -19 95 -7 39 -17 88 -23 110 -76 300
-102 429 -160 783 -33 196 -108 328 -502 887 -138 196 -172 231 -294 311 -69
45 -232 128 -320 164 -11 4 -36 15 -55 23 -19 8 -80 30 -135 48 -55 18 -109
35 -120 39 -11 4 -47 15 -80 25 -33 9 -71 21 -85 26 -14 5 -43 13 -65 18 -22
5 -74 18 -116 29 -42 11 -103 26 -135 32 -33 7 -77 16 -99 21 -165 38 -471 95
-660 124 -60 9 -135 20 -165 26 -30 5 -91 14 -135 19 -44 5 -93 11 -110 14
-16 3 -91 12 -165 21 -74 8 -169 20 -210 25 -76 10 -212 23 -440 40 -69 6
-174 15 -235 21 -384 37 -1617 69 -1885 49z m2085 -459 c377 -34 690 -79 1135
-165 36 -7 72 -15 80 -18 8 -4 29 -9 45 -12 70 -12 322 -75 445 -111 30 -9 64
-19 75 -22 11 -2 29 -8 40 -13 11 -4 45 -16 75 -25 94 -28 255 -86 336 -121
16 -7 68 -29 115 -49 214 -92 435 -233 562 -359 47 -47 88 -95 92 -106 3 -11
11 -20 16 -20 5 0 9 -4 9 -10 0 -5 31 -60 68 -122 100 -165 214 -402 272 -563
18 -49 36 -99 40 -110 37 -89 96 -314 126 -485 67 -374 57 -764 -28 -1080 -11
-41 -25 -93 -30 -115 -6 -22 -15 -44 -19 -49 -5 -6 -9 -16 -9 -23 0 -7 -20
-56 -45 -109 -25 -53 -45 -98 -45 -100 0 -2 -18 -33 -40 -69 -22 -36 -40 -67
-40 -69 0 -9 -123 -203 -194 -306 -66 -96 -236 -322 -256 -340 -3 -3 -23 -27
-45 -55 -21 -27 -42 -52 -45 -55 -3 -3 -34 -39 -70 -80 -35 -41 -89 -102 -120
-135 -30 -33 -79 -87 -109 -120 -29 -33 -119 -129 -200 -214 -80 -85 -161
-170 -180 -190 -18 -20 -106 -112 -195 -206 -392 -414 -404 -427 -531 -580
-142 -170 -391 -552 -538 -824 -84 -156 -287 -571 -287 -586 0 -6 -48 -114
-60 -137 -6 -10 -10 -22 -10 -27 0 -5 -13 -38 -29 -73 -16 -35 -43 -103 -61
-153 -30 -83 -39 -107 -61 -160 -10 -24 -90 -269 -111 -340 -9 -27 -23 -77
-32 -110 -10 -33 -22 -71 -26 -85 -15 -41 -60 -256 -81 -379 -24 -149 -25
-356 -3 -447 18 -71 15 -86 -13 -58 -72 71 -139 174 -215 329 -84 169 -84 169
-143 355 -63 197 -68 213 -90 325 -9 44 -20 96 -25 115 -19 75 -43 394 -42
565 0 177 23 506 41 595 32 158 47 216 78 310 81 248 208 453 428 691 43 46
201 210 350 364 262 271 316 328 421 445 27 30 74 81 104 115 31 33 89 98 130
145 72 83 119 134 265 289 96 103 88 94 391 407 245 253 331 343 448 468 50
54 201 228 249 288 21 26 44 53 51 60 37 38 276 372 276 387 0 5 4 11 9 13 5
2 40 53 78 113 141 224 158 271 158 450 -1 141 -28 287 -74 390 -5 11 -15 36
-23 55 -20 51 -114 239 -143 285 -13 22 -29 49 -34 60 -10 23 -159 232 -211
296 -178 221 -437 456 -618 562 -85 50 -254 129 -367 172 -55 21 -118 46 -140
55 -22 9 -107 41 -190 69 -82 29 -157 56 -165 60 -8 4 -103 36 -210 70 -107
35 -204 67 -215 72 -11 4 -45 16 -75 25 -30 9 -86 27 -125 39 -38 13 -117 38
-175 55 -58 18 -114 36 -125 40 -11 5 -36 13 -55 19 -19 5 -118 35 -220 66
-102 31 -205 63 -230 70 -25 7 -121 36 -215 64 -93 28 -175 51 -182 51 -7 0
-21 4 -31 9 -9 6 -44 17 -77 26 -33 10 -71 21 -85 25 -14 5 -53 16 -87 26 -35
9 -63 20 -63 23 0 22 127 58 270 77 109 14 701 11 885 -5z m-13065 -8581 c485
-20 877 -74 1254 -175 73 -19 186 -42 252 -50 634 -82 1392 -210 1694 -285 63
-16 243 -54 400 -85 506 -100 658 -137 949 -230 91 -29 193 -56 226 -60 91
-10 445 -82 574 -116 121 -32 787 -252 909 -300 40 -16 214 -100 385 -187 282
-143 771 -368 952 -438 39 -14 79 -30 90 -34 11 -5 36 -15 57 -24 20 -9 41
-16 47 -16 6 0 19 -4 29 -10 9 -5 89 -37 177 -70 88 -33 169 -64 180 -69 11
-5 90 -37 175 -72 85 -34 178 -72 205 -84 28 -12 86 -37 130 -55 78 -32 100
-41 215 -93 30 -13 89 -39 130 -57 41 -18 117 -52 167 -76 51 -24 95 -44 97
-44 2 0 46 -20 98 -45 51 -25 99 -45 106 -45 6 0 12 -4 12 -10 0 -5 5 -10 11
-10 25 0 653 -320 949 -483 80 -44 163 -90 185 -102 22 -12 96 -54 165 -94
119 -70 300 -174 365 -211 56 -32 499 -302 592 -361 51 -33 97 -59 102 -59 5
0 11 -4 13 -8 2 -4 34 -27 71 -50 105 -66 349 -228 466 -309 59 -41 115 -79
125 -86 10 -6 31 -21 45 -33 14 -12 64 -49 111 -83 271 -196 506 -409 593
-538 20 -30 37 -63 37 -73 0 -10 9 -35 19 -57 36 -72 51 -106 51 -119 0 -7 24
-38 53 -70 49 -54 54 -64 93 -198 23 -77 41 -142 40 -143 0 0 -120 -2 -266 -3
-207 -2 -287 1 -365 14 -187 31 -389 52 -645 67 -333 19 -611 50 -815 93 -38
8 -104 21 -145 30 -41 8 -104 22 -140 31 -36 10 -87 23 -115 29 -27 7 -57 15
-65 18 -8 3 -42 13 -75 23 -33 9 -71 20 -85 25 -14 5 -59 18 -100 30 -41 11
-82 25 -90 29 -9 5 -31 12 -50 16 -19 4 -39 10 -45 14 -5 4 -35 15 -65 25 -30
10 -64 21 -75 26 -11 4 -67 25 -125 45 -118 42 -135 48 -170 63 -14 6 -95 39
-180 72 -85 34 -173 69 -195 79 -22 10 -96 42 -165 71 -69 29 -154 66 -188 82
-35 16 -105 47 -155 69 -51 23 -132 60 -182 84 -49 23 -112 53 -140 65 -27 13
-114 54 -193 91 -78 38 -145 69 -147 69 -2 0 -79 36 -171 80 -91 44 -168 80
-170 80 -2 0 -69 32 -150 70 -80 39 -148 70 -150 70 -2 0 -32 14 -66 30 -34
17 -67 30 -75 30 -7 0 -13 5 -13 10 0 6 -5 10 -11 10 -10 0 -39 13 -174 75
-38 18 -92 43 -120 55 -27 13 -78 35 -112 51 -34 16 -77 35 -95 43 -18 8 -46
26 -63 41 -16 15 -75 57 -130 93 -111 73 -553 342 -560 342 -3 0 -34 17 -68
39 -34 21 -111 67 -172 101 -60 35 -126 72 -145 83 -88 51 -287 160 -425 234
-102 54 -831 417 -895 445 -19 9 -75 35 -125 58 -105 50 -222 103 -285 132
-25 11 -78 36 -118 54 -41 19 -76 34 -78 34 -5 0 -25 9 -150 66 -128 58 -309
134 -321 134 -7 0 -13 4 -13 9 0 5 -11 12 -25 15 -14 4 -56 20 -93 37 -37 17
-92 40 -122 51 -30 11 -75 29 -100 40 -25 10 -54 23 -65 28 -11 4 -36 15 -55
23 -19 8 -100 40 -180 72 -80 31 -154 60 -165 65 -11 5 -92 37 -180 70 -88 33
-169 64 -180 69 -11 6 -78 31 -150 56 -71 25 -137 50 -145 54 -9 5 -31 12 -50
16 -19 4 -39 11 -45 15 -11 9 -180 69 -300 106 -44 14 -89 30 -100 35 -41 18
-386 129 -403 129 -10 0 -22 4 -28 8 -5 5 -36 17 -69 26 -33 10 -71 21 -85 26
-31 11 -203 61 -290 85 -36 10 -84 24 -108 31 -23 8 -51 14 -62 14 -10 0 -21
4 -24 9 -3 5 -20 11 -38 14 -18 3 -105 23 -193 46 -88 22 -168 41 -178 41 -9
0 -25 4 -35 9 -9 5 -44 15 -77 21 -33 7 -78 16 -100 21 -42 11 -134 29 -262
54 -43 8 -116 20 -163 26 -47 6 -101 14 -120 19 -19 5 -89 16 -155 25 -66 9
-142 20 -170 25 -27 5 -102 18 -165 29 -139 24 -251 47 -305 62 -22 6 -46 13
-53 15 -8 2 3 28 33 74 24 38 78 131 119 206 l75 137 218 90 c278 114 310 118
833 97z m65 -4399 c108 -11 282 -36 385 -56 41 -8 104 -20 140 -26 36 -6 74
-14 85 -18 11 -5 54 -16 95 -26 41 -9 98 -24 125 -32 28 -8 66 -18 85 -24 19
-5 76 -21 125 -35 50 -14 104 -30 120 -34 148 -39 840 -289 1040 -375 17 -8
66 -27 110 -45 44 -17 94 -37 110 -45 17 -7 89 -38 160 -68 127 -54 169 -72
324 -144 41 -19 98 -44 125 -56 28 -11 100 -45 159 -74 59 -29 110 -53 113
-53 24 0 1056 -520 1329 -670 28 -15 86 -47 130 -70 44 -24 144 -78 223 -121
78 -44 144 -79 145 -79 2 0 59 -31 126 -70 68 -38 124 -70 126 -70 2 0 48 -27
103 -59 55 -32 124 -72 154 -88 74 -41 315 -181 360 -210 21 -12 40 -23 42
-23 3 0 45 -24 93 -53 48 -29 95 -56 103 -60 19 -9 53 -30 60 -37 5 -6 42 -28
130 -78 48 -27 513 -311 628 -383 51 -33 94 -59 96 -59 1 0 40 -25 86 -55 49
-32 77 -56 69 -59 -8 -3 -59 -10 -114 -15 -229 -23 -310 -39 -485 -93 -86 -27
-260 -114 -385 -193 -73 -46 -309 -183 -385 -223 -94 -50 -387 -196 -445 -222
-27 -12 -88 -40 -133 -61 -46 -22 -85 -39 -87 -39 -3 0 -29 -11 -182 -81 -24
-10 -46 -19 -50 -19 -5 0 -19 -6 -33 -13 -14 -8 -58 -26 -98 -41 -40 -15 -72
-32 -72 -36 0 -13 40 -49 74 -67 66 -34 292 -51 461 -35 61 6 187 16 280 23
223 15 347 25 420 33 137 15 681 46 803 46 188 0 340 -18 482 -58 19 -5 62
-18 95 -27 172 -49 355 -98 430 -115 232 -53 251 -57 345 -73 82 -14 115 -30
355 -168 111 -64 440 -251 500 -284 28 -15 55 -31 60 -35 6 -4 35 -21 65 -37
30 -17 123 -70 205 -118 83 -48 170 -98 194 -112 72 -42 128 -75 266 -160 133
-82 252 -143 277 -143 8 0 18 -4 24 -9 12 -12 230 -81 255 -81 10 0 20 -4 23
-9 3 -5 16 -11 28 -14 97 -24 279 -76 310 -88 25 -10 27 -15 22 -48 -3 -20
-10 -41 -15 -47 -5 -6 -6 -14 -2 -17 3 -4 1 -13 -6 -21 -6 -8 -11 -18 -9 -22
5 -21 -15 -94 -25 -94 -9 0 -8 -3 0 -8 10 -6 8 -16 -7 -44 -10 -20 -16 -39
-13 -42 4 -3 1 -6 -6 -6 -6 0 -11 -6 -10 -12 2 -13 -3 -26 -42 -113 -12 -27
-24 -58 -25 -68 -5 -21 -53 -115 -62 -119 -4 -2 -20 -29 -37 -62 -16 -32 -42
-72 -57 -88 -16 -17 -26 -34 -23 -39 3 -4 -3 -14 -14 -20 -10 -7 -17 -18 -14
-24 2 -7 -3 -15 -12 -19 -9 -3 -14 -10 -11 -15 3 -5 -6 -17 -19 -27 -14 -10
-25 -26 -25 -35 0 -9 -7 -19 -15 -23 -8 -3 -15 -9 -14 -13 3 -19 -2 -34 -9
-29 -4 2 -14 -4 -21 -16 -9 -15 -10 -18 0 -13 7 5 10 4 5 -3 -16 -27 -99 -23
-171 9 -11 5 -38 13 -60 18 -22 6 -56 14 -75 20 -19 5 -109 29 -200 52 -91 23
-174 46 -185 50 -11 4 -42 13 -70 19 -27 6 -66 15 -85 20 -19 5 -64 16 -100
24 -36 7 -99 22 -140 31 -119 28 -324 73 -385 85 -43 9 -162 32 -285 56 -41 8
-118 22 -170 30 -52 9 -115 19 -140 24 -25 4 -79 13 -120 19 -41 7 -97 16
-125 21 -27 6 -99 16 -160 25 -60 8 -146 19 -190 25 -165 22 -529 31 -826 20
-158 -5 -293 -12 -301 -15 -7 -2 -65 -9 -128 -15 -164 -14 -434 -50 -595 -80
-33 -6 -88 -15 -121 -20 -68 -10 -349 -65 -404 -79 -19 -5 -71 -17 -115 -26
-44 -10 -88 -21 -97 -26 -10 -5 -26 -9 -35 -9 -24 0 -317 -75 -453 -115 -30
-9 -77 -22 -105 -30 -27 -7 -97 -28 -155 -45 -58 -18 -116 -35 -130 -37 -14
-3 -29 -9 -35 -13 -5 -4 -26 -11 -45 -15 -19 -4 -41 -11 -50 -15 -8 -5 -80
-29 -160 -55 -132 -42 -254 -84 -305 -105 -11 -4 -96 -36 -190 -70 -93 -34
-174 -66 -180 -71 -5 -5 -16 -9 -25 -9 -8 0 -26 -6 -40 -13 -14 -7 -47 -21
-75 -31 -27 -10 -75 -30 -105 -43 -30 -14 -76 -33 -101 -43 -26 -10 -68 -29
-95 -41 -27 -12 -69 -31 -94 -42 -129 -57 -401 -194 -455 -228 -34 -21 -66
-39 -70 -39 -11 0 -115 -78 -144 -109 -20 -21 -22 -31 -16 -70 33 -226 43
-265 116 -485 22 -65 38 -120 36 -123 -5 -4 -277 20 -372 33 -22 3 -71 9 -110
14 -205 26 -375 52 -495 74 -47 9 -121 22 -165 31 -44 8 -111 22 -150 31 -38
9 -95 21 -125 28 -30 7 -62 15 -70 18 -8 4 -46 14 -85 23 -38 9 -81 21 -95 25
-14 5 -59 18 -100 30 -41 12 -86 25 -100 30 -14 4 -72 23 -130 40 -58 17 -114
35 -125 40 -11 5 -110 38 -220 73 -189 62 -456 156 -500 176 -11 5 -72 31
-135 57 -127 52 -238 102 -315 141 -60 30 -228 125 -235 133 -3 3 -45 32 -93
64 -49 32 -94 64 -100 70 -7 6 -46 40 -87 76 -138 121 -308 311 -392 439 -26
40 -48 79 -48 85 0 6 -6 23 -14 38 -8 14 -22 59 -31 100 -9 40 -21 89 -27 108
-20 73 0 474 31 620 5 25 15 72 21 105 16 80 78 342 89 380 5 17 17 62 26 100
9 39 21 79 25 90 4 11 24 83 45 160 37 142 79 283 95 320 5 11 17 47 28 80 29
88 92 265 107 300 7 17 20 50 30 75 9 25 21 54 26 65 4 11 25 61 44 110 20 50
42 104 50 120 7 17 30 68 50 115 50 113 71 161 111 247 23 49 34 87 34 118 l0
46 58 -6 c31 -3 107 -11 167 -16 150 -13 196 -17 295 -29 47 -6 135 -15 195
-20 380 -33 518 -51 530 -71 4 -5 13 -9 21 -9 8 0 34 -9 57 -19 23 -11 107
-44 187 -75 80 -31 154 -61 165 -65 54 -24 102 -43 235 -96 80 -31 154 -61
165 -65 11 -5 36 -15 55 -24 19 -8 89 -35 155 -61 66 -25 134 -53 152 -61 17
-8 34 -14 37 -14 3 0 25 -9 49 -19 70 -32 191 -81 200 -81 4 0 27 -8 50 -19
23 -10 107 -44 187 -75 165 -65 172 -68 222 -90 69 -30 75 -15 27 72 -18 31
-43 77 -57 102 -68 124 -308 497 -344 534 -7 8 -20 24 -28 36 -90 135 -433
512 -570 625 -121 101 -253 190 -383 258 -101 54 -282 129 -362 152 -33 10
-69 21 -80 26 -75 32 -511 129 -578 129 -17 0 -44 4 -61 9 -49 15 -279 41
-586 65 -289 23 -297 24 -309 55 -9 26 -22 102 -44 261 -14 110 -14 470 0 580
62 462 217 831 468 1110 125 140 361 358 462 428 21 15 47 22 80 23 26 0 71 5
98 9 55 10 287 4 430 -9z m2402 -9393 c74 -127 104 -206 123 -322 6 -38 13
-73 16 -77 3 -5 5 -93 5 -195 0 -162 -15 -343 -37 -451 -7 -37 -22 -26 -28 20
-3 23 -10 80 -15 127 -20 162 -52 349 -80 465 -6 22 -14 60 -20 85 -9 41 -29
117 -47 178 -9 33 28 222 44 222 4 0 22 -24 39 -52z"/>
</g>
</svg>
